<?xml version="1.0" encoding="UTF-8"?>
<svg width="41px" height="25px" viewBox="0 0 41 25" version="1.1" xmlns="http://www.w3.org/2000/svg" xmlns:xlink="http://www.w3.org/1999/xlink">
    <!-- Generator: sketchtool 52.6 (67491) - http://www.bohemiancoding.com/sketch -->
    <title>D3C7E15F-9C6B-4373-B905-D7EF0F379988</title>
    <desc>Created with sketchtool.</desc>
    <defs>
        <polygon id="path-1" points="0.000118181818 0.64356 12.7247545 0.64356 12.7247545 18 0.000118181818 18"></polygon>
    </defs>
    <g id="Payment-Calculator" stroke="none" stroke-width="1" fill="none" fill-rule="evenodd">
        <g id="Tools-Homepage" transform="translate(-947.000000, -115.000000)">
            <g id="Group-12" transform="translate(947.000000, 115.000000)">
                <path d="M22,5.49730313 C22,6.32901834 21.3275676,7 20.4994595,7 C19.6724324,7 19,6.32901834 19,5.49730313 C19,4.67098166 19.6724324,4 20.4994595,4 C21.3275676,4 22,4.67098166 22,5.49730313" id="Fill-1" fill="#FFFFFE"></path>
                <path d="M24.6794898,8.04940271 L23.4367281,7.8732537 L22.8766957,8.6555983 L23.4428022,9.77444827 L22.5778498,10.4049403 L21.6800972,9.53391375 L20.7689816,9.83883377 L20.5673213,11.0755214 L19.4994938,11.0828103 L19.2856854,9.8461227 L18.3672808,9.55942498 L17.4756023,10.4377404 L16.6106499,9.81939664 L17.1573193,8.69325774 L16.5912128,7.91941689 L15.3545252,8.10771411 L15.0155902,7.09333873 L16.122292,6.50658028 L16.1162179,5.5505163 L15.003442,4.97104677 L15.321725,3.95667139 L16.5644867,4.13160559 L17.1245191,3.3504758 L16.5584126,2.23162584 L17.4233651,1.59991901 L18.3223325,2.47216036 L19.2334481,2.16724033 L19.4351083,0.930552743 L20.501721,0.923263819 L20.7167443,2.15995141 L21.633934,2.44664912 L22.5256125,1.56833367 L23.3905649,2.18667747 L22.8378214,3.31281636 L23.4112168,4.08665722 L24.6479044,3.89835999 L24.9856246,4.90666127 L23.8789229,5.498279 L23.8862118,6.45555781 L24.9989876,7.02773841 L24.6794898,8.04940271 Z M24.0089087,0 L15.9923061,0 C14.8916785,0 14,0.897752581 14,1.99716542 L14,10.0089087 C14,11.1083215 14.8916785,12 15.9923061,12 L24.0089087,12 C25.1095363,12 26,11.1083215 26,10.0089087 L26,1.99716542 C26,0.897752581 25.1095363,0 24.0089087,0 Z" id="Fill-3" fill="#FFFFFE"></path>
                <g id="Group-7" transform="translate(0.000000, 7.000000)">
                    <mask id="mask-2" fill="white">
                        <use xlink:href="#path-1"></use>
                    </mask>
                    <g id="Clip-6"></g>
                    <path d="M6.79320909,10.27956 L6.5403,11.29596 C6.30511818,11.19876 5.90093636,10.99356 5.26157273,10.99356 C4.68484545,10.99356 4.50166364,11.24436 4.50166364,11.49516 C4.50166364,11.79036 4.8113,11.98356 5.56411818,12.27276 C6.61593636,12.64596 7.04611818,13.14036 7.04611818,13.95036 C7.04611818,14.75436 6.48239091,15.43476 5.46957273,15.61476 L5.46957273,16.53396 L4.59620909,16.53396 L4.59620909,15.67956 C4.00766364,15.65436 3.43093636,15.49356 3.09648182,15.29436 L3.36120909,14.23956 C3.72875455,14.44476 4.25466364,14.63796 4.83020909,14.63796 C5.33720909,14.63796 5.67875455,14.43876 5.67875455,14.07876 C5.67875455,13.73796 5.39393636,13.51956 4.74157273,13.29516 C3.79139091,12.97356 3.14611818,12.52356 3.14611818,11.64876 C3.14611818,10.85796 3.69684545,10.23516 4.64111818,10.04796 L4.64111818,9.19356 L5.51448182,9.19356 L5.51448182,9.98436 C6.10302727,10.00956 6.5013,10.13796 6.79320909,10.27956 M7.97620909,1.92996 L12.7247545,1.92996 L12.7247545,0.64356 L7.97620909,0.64356 C6.01439091,0.70836 4.43193636,2.25156 4.43193636,4.24356 L4.43193636,7.77996 C1.96311818,8.10036 0.000118181818,10.28556 0.000118181818,12.85716 C0.000118181818,15.68556 2.27866364,18.00036 5.06539091,18.00036 C7.85093636,18.00036 10.1294818,15.68556 10.1294818,12.85716 C10.1294818,10.22196 8.16648182,8.10036 5.69766364,7.77996 L5.69766364,4.24356 C5.69766364,2.95836 6.71048182,1.92996 7.97620909,1.92996" id="Fill-5" fill="#FFFFFE" mask="url(#mask-2)"></path>
                </g>
                <path d="M20.3987711,22.6064356 L20.3987711,23.5544554 L19.5425269,23.5544554 L19.5425269,22.6732673 C18.9557547,22.6460396 18.3864807,22.480198 18.0551818,22.2747525 L18.3176545,21.1881188 C18.68045,21.3997525 19.1995626,21.5990099 19.7676701,21.5990099 C20.268118,21.5990099 20.6052496,21.3935644 20.6052496,21.0222772 C20.6052496,20.6707921 20.3299449,20.4455446 19.6801793,20.2128713 C18.7434435,19.8811881 18.1053433,19.4170792 18.1053433,18.5160891 C18.1053433,17.700495 18.6489533,17.0581683 19.5868556,16.865099 L19.5868556,15.9826733 L20.4430998,15.9826733 L20.4430998,16.799505 C21.0240393,16.825495 21.4183316,16.9579208 21.7111344,17.1039604 L21.4544945,18.1509901 C21.2305178,18.0519802 20.8233935,17.8391089 20.1992919,17.8391089 C19.6300178,17.8391089 19.4433706,18.0977723 19.4433706,18.3564356 C19.4433706,18.6608911 19.7490054,18.8613861 20.4932612,19.1584158 C21.5361526,19.5433168 21.9549424,20.0532178 21.9549424,20.8898515 C21.9549424,21.7178218 21.4054996,22.4207921 20.3987711,22.6064356 M20.8117281,14.5247525 L20.8117281,13 L19.5611916,13 L19.5611916,14.4591584 C16.9994584,14.7240099 15,16.9777228 15,19.6955446 C15,22.6126238 17.2490991,25 19.9986461,25 C22.7481931,25 24.9984587,22.6126238 24.9984587,19.6955446 C25.0614522,17.1101485 23.1856475,14.9232673 20.8117281,14.5247525" id="Fill-8" fill="#FFFFFE"></path>
                <path d="M36.3149351,22.6644541 L36.3149351,23.5648206 L35.4543651,23.5648206 L35.4543651,22.7279264 C34.8646284,22.7020673 34.2924784,22.544562 33.9595058,22.3494434 L34.2233045,21.3174307 C34.5867605,21.5184263 35.1096681,21.7076678 35.6806457,21.7076678 C36.1836219,21.7076678 36.5224567,21.5125493 36.5224567,21.1599253 C36.5224567,20.826108 36.2457612,20.6121828 35.5927128,20.3912051 C34.6500722,20.0761944 34.0099206,19.6354145 34.0099206,18.7797138 C34.0099206,18.0051165 34.5562771,17.3950771 35.4989177,17.2117126 L35.4989177,16.3736431 L36.3583153,16.3736431 L36.3583153,17.1494158 C36.9421898,17.1740994 37.338474,17.2998686 37.6339286,17.4385674 L37.3759921,18.4329669 C37.1508838,18.3389338 36.7417027,18.1367628 36.1132756,18.1367628 C35.542298,18.1367628 35.3547078,18.3824241 35.3547078,18.6280855 C35.3547078,18.9172371 35.6607143,19.107654 36.4087302,19.3897532 C37.4580628,19.7553066 37.8789683,20.2395769 37.8789683,21.0341561 C37.8789683,21.8205075 37.3255772,22.4881422 36.3149351,22.6644541 M36.603355,14.9890064 L36.603355,11.5262394 C36.603355,9.57387817 35.0334596,8 33.0872114,8 L28,8 L28,9.25886745 L33.0872114,9.25886745 C34.3428932,9.25886745 35.3476732,10.2673719 35.3476732,11.5262394 L35.3476732,14.9890064 C32.8984488,15.3040171 30.9510281,17.3821475 30.9510281,19.9633548 C30.9510281,22.7338035 33.2126623,25 35.9761003,25 C38.7383658,25 41,22.7338035 41,19.9633548 C41,17.3821475 39.0537518,15.3040171 36.603355,14.9890064" id="Fill-10" fill="#FFFFFE"></path>
            </g>
        </g>
    </g>
</svg>