<?xml version="1.0" encoding="UTF-8"?>
<svg width="25px" height="25px" viewBox="0 0 25 25" version="1.1" xmlns="http://www.w3.org/2000/svg" xmlns:xlink="http://www.w3.org/1999/xlink">
    <!-- Generator: sketchtool 52.6 (67491) - http://www.bohemiancoding.com/sketch -->
    <title>45E06CFE-0865-486A-9B02-453BFCE3FA80</title>
    <desc>Created with sketchtool.</desc>
    <defs>
        <polygon id="path-1" points="0 0 25 0 25 25 0 25"></polygon>
    </defs>
    <g id="Payment-Calculator" stroke="none" stroke-width="1" fill="none" fill-rule="evenodd">
        <g id="Tools-Homepage" transform="translate(-956.000000, -646.000000)">
            <g id="Group-4" transform="translate(956.000000, 646.000000)">
                <mask id="mask-2" fill="white">
                    <use xlink:href="#path-1"></use>
                </mask>
                <g id="Clip-2"></g>
                <path d="M1.03779991,17.0022624 L23.9622001,17.0022624 L23.9622001,15.581448 L1.03779991,15.581448 L1.03779991,17.0022624 Z M1.03779991,21.3280543 L23.9622001,21.3280543 L23.9622001,20.0735294 L1.03779991,20.0735294 L1.03779991,21.3280543 Z M21.6274332,0 L13.8852422,0 C14.1342236,0.302036199 14.4250792,0.64479638 14.7261204,1.03733032 L21.6274332,1.03733032 C22.9142146,1.03733032 23.9622001,2.08597285 23.9622001,3.38235294 L23.9622001,12.5 L15.6190584,12.5 C14.7261204,13.091629 13.6464464,13.4445701 12.4943413,13.4445701 C11.3422363,13.4445701 10.263694,13.091629 9.370756,12.5 L1.03779991,12.5 L1.03779991,3.38235294 C1.03779991,2.08597285 2.08578542,1.03733032 3.37256677,1.03733032 L10.263694,1.03733032 L11.1034405,0 L3.37256677,0 C1.50407424,0 0,1.51470588 0,3.38235294 L0,21.6289593 C0,23.4852941 1.50407424,25 3.37256677,25 L21.6274332,25 C23.4846084,25 25,23.4852941 25,21.6289593 L25,3.38235294 C25,1.51470588 23.4846084,0 21.6274332,0 Z" id="Fill-1" fill="#FFFFFE" mask="url(#mask-2)"></path>
                <path d="M12.5,9.99343545 C10.9028724,9.99343545 9.60698637,8.6892779 9.60698637,7.0940919 C9.60698637,6.95404814 9.72748296,6.83260394 9.8687926,6.83260394 C10.0188656,6.83260394 10.1295034,6.95404814 10.1295034,7.0940919 C10.1295034,8.39824945 11.1942551,9.46170678 12.5,9.46170678 C12.6511685,9.46170678 12.771665,9.58205689 12.771665,9.72210066 C12.771665,9.87308534 12.6511685,9.99343545 12.5,9.99343545 M13.3642892,1.00328228 C13.0718111,0.63238512 12.7815239,0.292122538 12.5295764,0 L12.4704236,0 C12.2184761,0.292122538 11.9270935,0.63238512 11.6357108,1.00328228 C9.999148,2.99124726 8,5.87964989 8,7.49562363 C8,9.98249453 10.0188656,12 12.5,12 C14.9811344,12 17,9.98249453 17,7.49562363 C17,5.88949672 15.000852,3 13.3642892,1.00328228" id="Fill-3" fill="#FFFFFE" mask="url(#mask-2)"></path>
            </g>
        </g>
    </g>
</svg>