<?xml version="1.0" encoding="UTF-8"?>
<svg width="26px" height="27px" viewBox="0 0 26 27" version="1.1" xmlns="http://www.w3.org/2000/svg" xmlns:xlink="http://www.w3.org/1999/xlink">
    <!-- Generator: sketchtool 52.6 (67491) - http://www.bohemiancoding.com/sketch -->
    <title>ABFDC834-A783-43EB-9A6D-491635D1C743</title>
    <desc>Created with sketchtool.</desc>
    <defs>
        <polygon id="path-1" points="0 0.0322285714 6.92871667 0.0322285714 6.92871667 6.81851429 0 6.81851429"></polygon>
        <polygon id="path-3" points="0 0.906171429 6.92871667 0.906171429 6.92871667 7.69245714 0 7.69245714"></polygon>
        <polygon id="path-5" points="0.850857143 0.906171429 7.63771429 0.906171429 7.63771429 7.69245714 0.850857143 7.69245714"></polygon>
    </defs>
    <g id="Payment-Calculator" stroke="none" stroke-width="1" fill="none" fill-rule="evenodd">
        <g id="Tools-Homepage" transform="translate(-602.000000, -646.000000)">
            <g id="Group-16" transform="translate(602.000000, 646.000000)">
                <path d="M19.6756863,17.6027139 C19.1919831,17.6027139 18.7834182,17.854655 18.554481,18.2319861 L18.554481,18.2076047 C18.554481,17.4761628 17.9428078,16.871272 17.2043386,16.871272 C16.7194613,16.871272 16.3120705,17.1232131 16.0831333,17.5017052 L16.0831333,17.4761628 C16.0831333,16.745882 15.47146,16.1409912 14.7329908,16.1409912 C14.2481135,16.1409912 13.8407227,16.3929323 13.6117855,16.7702634 L13.6117855,12.3107902 C13.6117855,11.9590015 13.4849895,11.6304332 13.2302235,11.3796531 C12.9742834,11.126551 12.643205,11 12.2874718,11 C11.5478285,11 10.9619841,11.6060518 10.9619841,12.3363326 L10.9619841,20.5249982 C10.9619841,20.6004644 10.9115005,20.6759306 10.8598429,20.701473 C10.7835305,20.7258544 10.7072181,20.7258544 10.6567345,20.6503882 L9.30541797,19.3163776 C8.84754356,18.8624193 8.1337291,18.7869531 7.59836825,19.1642842 C7.29311864,19.3663014 7.06418144,19.7180901 7.01252381,20.0965823 C6.96204022,20.4750744 7.06418144,20.8524055 7.31894746,21.1554314 L10.7072181,25.1853276 C11.6757986,26.3451854 13.0764246,27 14.580366,27 L16.5926653,27 C17.7655282,27 18.8855595,26.5460417 19.7003411,25.7147522 C20.5421256,24.8834627 21,23.8002322 21,22.6415354 L21,18.9878093 C21,18.1820623 20.4141556,17.6027139 19.6756863,17.6027139" id="Fill-1" fill="#FFFFFE"></path>
                <path d="M24.0387271,4.35820141 C24.2296683,4.54917481 24.2296683,4.84860222 24.0387271,5.03839677 C23.9574002,5.11973729 23.8206769,5.17514315 23.7122411,5.17514315 C23.6026267,5.17514315 23.467082,5.11973729 23.3845765,5.03839677 L22.4864455,4.14011452 L21.5871359,5.03839677 C21.5058091,5.11973729 21.3690857,5.17514315 21.2606499,5.17514315 C21.1522142,5.17514315 21.0154908,5.11973729 20.934164,5.03839677 C20.7432228,4.84860222 20.7432228,4.54917481 20.934164,4.35820141 L21.832295,3.45874032 L20.934164,2.56045807 C20.7432228,2.36948467 20.7432228,2.07005726 20.934164,1.87908387 C21.1239266,1.68811047 21.4244822,1.68811047 21.6142448,1.87908387 L22.5135545,2.77854496 L23.4128641,1.87908387 C23.6026267,1.68811047 23.9020037,1.68811047 24.0929449,1.87908387 C24.2838862,2.07005726 24.2838862,2.36948467 24.0929449,2.56045807 L23.1948139,3.45874032 L24.0387271,4.35820141 Z M24.6374811,0 L20.3613403,0 C19.6270416,0 19,0.598854833 19,1.36156955 L19,5.63843045 C19,6.37403166 19.598754,7 20.3613403,7 L24.6374811,7 C25.3729584,7 26,6.39996632 26,5.63843045 L26,1.36156955 C25.9728911,0.598854833 25.3729584,0 24.6374811,0 Z" id="Fill-3" fill="#FFFFFE"></path>
                <g id="Group-7">
                    <mask id="mask-2" fill="white">
                        <use xlink:href="#path-1"></use>
                    </mask>
                    <g id="Clip-6"></g>
                    <path d="M5.01421667,4.25737143 C5.20321667,4.44251429 5.20321667,4.7328 5.01421667,4.9168 C4.93371667,4.99565714 4.79838333,5.04937143 4.69105,5.04937143 C4.58255,5.04937143 4.44838333,4.99565714 4.36671667,4.9168 L3.45088333,4.04594286 L2.56071667,4.9168 C2.48021667,4.99565714 2.34488333,5.04937143 2.23755,5.04937143 C2.13021667,5.04937143 1.99488333,4.99565714 1.91438333,4.9168 C1.72538333,4.7328 1.72538333,4.44251429 1.91438333,4.25737143 L2.80338333,3.38537143 L1.91438333,2.51451429 C1.72538333,2.32937143 1.72538333,2.03908571 1.91438333,1.85394286 C2.10221667,1.6688 2.39971667,1.6688 2.58755,1.85394286 L3.47771667,2.72594286 L4.36671667,1.85394286 C4.55571667,1.6688 4.85205,1.6688 5.04105,1.85394286 C5.23005,2.03908571 5.23005,2.32937143 5.04105,2.51451429 L4.15205,3.38537143 L5.01421667,4.25737143 Z M5.58005,0.0322285714 L1.34738333,0.0322285714 C0.619383333,0.0322285714 -0.000116666666,0.6128 -0.000116666666,1.35222857 L-0.000116666666,5.49851429 C-0.000116666666,6.21165714 0.59255,6.81851429 1.34738333,6.81851429 L5.58005,6.81851429 C6.30805,6.81851429 6.92871667,6.2368 6.92871667,5.49851429 L6.92871667,1.35222857 C6.92871667,0.6128 6.30805,0.0322285714 5.58005,0.0322285714 Z" id="Fill-5" fill="#FFFFFE" mask="url(#mask-2)"></path>
                </g>
                <g id="Group-10" transform="translate(0.000000, 8.000000)">
                    <mask id="mask-4" fill="white">
                        <use xlink:href="#path-3"></use>
                    </mask>
                    <g id="Clip-9"></g>
                    <path d="M5.01421667,5.13131429 C5.20321667,5.31645714 5.20321667,5.60674286 5.01421667,5.79188571 C4.93371667,5.87074286 4.79838333,5.92331429 4.69105,5.92331429 C4.58255,5.92331429 4.44838333,5.87074286 4.36671667,5.79188571 L3.45088333,4.91988571 L2.56071667,5.79188571 C2.48021667,5.87074286 2.34488333,5.92331429 2.23755,5.92331429 C2.13021667,5.92331429 1.99488333,5.87074286 1.91438333,5.79188571 C1.72538333,5.60674286 1.72538333,5.31645714 1.91438333,5.13131429 L2.80338333,4.25931429 L1.91438333,3.38845714 C1.72538333,3.20331429 1.72538333,2.91302857 1.91438333,2.72788571 C2.10221667,2.54274286 2.39971667,2.54274286 2.58755,2.72788571 L3.47771667,3.59988571 L4.36671667,2.72788571 C4.55571667,2.54274286 4.85205,2.54274286 5.04105,2.72788571 C5.23005,2.91302857 5.23005,3.20331429 5.04105,3.38845714 L4.15205,4.25931429 L5.01421667,5.13131429 Z M5.58005,0.906171429 L1.34738333,0.906171429 C0.619383333,0.906171429 -0.000116666667,1.48788571 -0.000116666667,2.22617143 L-0.000116666667,6.37245714 C-0.000116666667,7.0856 0.59255,7.69245714 1.34738333,7.69245714 L5.58005,7.69245714 C6.30805,7.69245714 6.92871667,7.11188571 6.92871667,6.37245714 L6.92871667,2.22617143 C6.92871667,1.48788571 6.30805,0.906171429 5.58005,0.906171429 Z" id="Fill-8" fill="#FFFFFE" mask="url(#mask-4)"></path>
                </g>
                <g id="Group-13" transform="translate(18.000000, 8.000000)">
                    <mask id="mask-6" fill="white">
                        <use xlink:href="#path-5"></use>
                    </mask>
                    <g id="Clip-12"></g>
                    <path d="M5.76285714,5.13131429 C5.948,5.31645714 5.948,5.60674286 5.76285714,5.79188571 C5.684,5.87074286 5.55142857,5.92331429 5.44628571,5.92331429 C5.34,5.92331429 5.20857143,5.87074286 5.12971429,5.79188571 L4.23142857,4.91988571 L3.35942857,5.79188571 C3.28057143,5.87074286 3.148,5.92331429 3.04285714,5.92331429 C2.93771429,5.92331429 2.80514286,5.87074286 2.72628571,5.79188571 C2.54114286,5.60674286 2.54114286,5.31645714 2.72628571,5.13131429 L3.59714286,4.25931429 L2.72628571,3.38845714 C2.54114286,3.20331429 2.54114286,2.91302857 2.72628571,2.72788571 C2.91028571,2.54274286 3.20171429,2.54274286 3.38571429,2.72788571 L4.25771429,3.59988571 L5.12971429,2.72788571 C5.31371429,2.54274286 5.604,2.54274286 5.78914286,2.72788571 C5.97428571,2.91302857 5.97428571,3.20331429 5.78914286,3.38845714 L4.91828571,4.25931429 L5.76285714,5.13131429 Z M6.31714286,0.906171429 L2.17085714,0.906171429 C1.45771429,0.906171429 0.850857143,1.48788571 0.850857143,2.22617143 L0.850857143,6.37245714 C0.850857143,7.0856 1.43142857,7.69245714 2.17085714,7.69245714 L6.31714286,7.69245714 C7.03028571,7.69245714 7.63828571,7.11188571 7.63828571,6.37245714 L7.63828571,2.22617143 C7.63828571,1.48788571 7.03028571,0.906171429 6.31714286,0.906171429 Z" id="Fill-11" fill="#FFFFFE" mask="url(#mask-6)"></path>
                </g>
                <path d="M15.0370433,2.48994083 L12.3426503,5.75621302 C12.2318572,5.89940828 12.0562384,5.96449704 11.8652972,5.96449704 C11.6896784,5.96449704 11.4987372,5.89940828 11.3867654,5.75621302 L9.98299377,4.01065089 C9.72840546,3.75502959 9.77673009,3.33846154 10.0313184,3.1147929 C10.2859067,2.90650888 10.6854689,2.93846154 10.9400572,3.19408284 L11.8652972,4.29940828 L14.0493349,1.64142012 C14.2555986,1.38579882 14.6704832,1.30650888 14.9580737,1.56213018 C15.2291632,1.78579882 15.259808,2.20236686 15.0370433,2.48994083 M14.6374811,0 L10.3613403,0 C9.62704159,0 9,0.601183432 9,1.36686391 L9,5.66035503 C9,6.39881657 9.598754,7 10.3613403,7 L14.6374811,7 C15.3729584,7 16,6.39881657 16,5.63195266 L16,1.36686391 C16,0.628402367 15.4000674,0 14.6374811,0" id="Fill-14" fill="#FFFFFE"></path>
            </g>
        </g>
    </g>
</svg>