<?xml version="1.0" encoding="UTF-8"?>
<svg width="34px" height="25px" viewBox="0 0 34 25" version="1.1" xmlns="http://www.w3.org/2000/svg" xmlns:xlink="http://www.w3.org/1999/xlink">
    <!-- Generator: sketchtool 52.6 (67491) - http://www.bohemiancoding.com/sketch -->
    <title>9032878A-B50D-4F71-85DF-9002E909FA14</title>
    <desc>Created with sketchtool.</desc>
    <g id="Payment-Calculator" stroke="none" stroke-width="1" fill="none" fill-rule="evenodd">
        <g id="Tools-Homepage" transform="translate(-598.000000, -114.000000)" fill="#FFFFFE">
            <g id="Group-13" transform="translate(598.000000, 114.000000)">
                <path d="M4.17529165,9.98595332 C3.57897098,9.98595332 3.08226144,9.5385251 3.08226144,8.98946499 C3.08226144,8.44040488 3.57897098,7.99297666 4.17529165,7.99297666 C4.77161232,7.99297666 5.2575531,8.44040488 5.2575531,8.98946499 C5.2575531,9.5385251 4.77161232,9.98595332 4.17529165,9.98595332 M10.6029016,6.74240859 C10.7132815,6.48832886 10.8573138,6.24416443 11,6 L3.57897098,6 C3.35821119,6.69159265 2.76189052,7.24065276 2,7.44391655 L2,10.5449287 C2.76189052,10.7481925 3.35821119,11.298492 3.57897098,12 L9.55429255,12 C9.54217768,11.7446809 9.53140891,11.4906011 9.53140891,11.2365214 L9.53140891,10.9725263 C8.7695184,10.5957447 8.24992522,9.8545755 8.24992522,8.98946499 C8.24992522,7.76864284 9.28911158,6.78330923 10.6029016,6.74240859" id="Fill-1"></path>
                <path d="M1.54142419,6.50248016 C2.10390435,6.50248016 2.56226854,6.04489087 2.56226854,5.49553571 C2.56226854,5.35292659 2.61432653,5.25124008 2.71844249,5.14955357 C2.82255846,5.04786706 2.92667443,4.99702381 3.07269072,4.99702381 L11.1873876,4.99702381 C11.4375198,4.65104167 11.7079674,4.31498016 12,4 L0.520579833,4 C0.208231933,4 0,4.20337302 0,4.4985119 L0,13.5027282 C0,13.8077877 0.208231933,14 0.520579833,14 L9.52153211,14 C9.43773146,13.6750992 9.3539308,13.3390377 9.30187282,13.0042163 L3.07269072,13.0042163 C2.77050048,13.0042163 2.56226854,12.8008433 2.56226854,12.5044643 C2.56226854,11.9551091 2.10390435,11.4975198 1.54142419,11.4975198 C1.38525024,11.4975198 1.28113427,11.4578373 1.18717596,11.3561508 C1.08305999,11.2544643 1.03100201,11.1006944 1.03100201,10.9990079 L1.03100201,7.00099206 C1.03100201,6.69593254 1.22907629,6.50248016 1.54142419,6.50248016" id="Fill-3"></path>
                <path d="M20.196014,2 C18.6764325,2 17.2475336,2.39329066 16,3.08585301 L23.193722,3.08585301 C23.7740907,3.08585301 24.161435,3.4817921 24.161435,4.07503862 C24.161435,5.16354006 25.031988,6.05340984 26.096861,6.05340984 C26.3870453,6.05340984 26.5813652,6.15272567 26.7743896,6.35135732 C26.9687095,6.54866475 27.064574,6.84528802 27.064574,7.04259545 L27.064574,14.9574045 C27.064574,15.5506511 26.6772297,15.9465902 26.096861,15.9465902 C25.031988,15.9465902 24.161435,16.8364599 24.161435,17.9249614 C24.161435,18.2215846 24.064275,18.4188921 23.8712506,18.6175237 C23.6782262,18.8148312 23.3867464,18.914147 23.193722,18.914147 L16,18.914147 C17.2475336,19.6067093 18.6764325,20 20.196014,20 C25.0578974,20 29,15.970426 29,10.9993379 C29,6.02957405 25.0578974,2 20.196014,2" id="Fill-5"></path>
                <path d="M19.1908275,10.9799197 C19.1908275,9.88219545 20.0566301,8.98661312 21.1207378,8.98661312 C22.1835494,8.98661312 23.0506481,9.88219545 23.0506481,10.9799197 C23.0506481,12.0776439 22.1835494,12.9732262 21.1207378,12.9732262 C20.0566301,12.9732262 19.1908275,12.0776439 19.1908275,10.9799197 M25,14.0910308 L25,7.88888889 C23.641675,7.48192771 22.5775673,6.38286479 22.1835494,5 L13.4386839,5 C12.8567298,5.6854083 12.371984,6.45917001 12.0077767,7.30254351 C13.1250249,8.1124498 13.8534397,9.44712182 13.8534397,10.9799197 C13.8534397,12.5153949 13.1224327,13.8554217 12,14.6639893 C12.3667996,15.5220884 12.8606181,16.3065596 13.4529412,17 L22.1835494,17 C22.5775673,15.5970549 23.641675,14.497992 25,14.0910308" id="Fill-7"></path>
                <path d="M19.439,20.497 C19.479,20.498 19.517,20.503 19.557,20.503 C19.559,20.503 19.56,20.503 19.561,20.503 C19.52,20.502 19.48,20.498 19.439,20.497" id="Fill-9"></path>
                <path d="M20.1715249,21.4135906 C14.7304111,21.4135906 10.3044208,16.9200923 10.3044208,11.3989094 C10.3044208,5.87641569 14.7304111,1.38422819 20.1715249,1.38422819 C25.6126387,1.38422819 30.0386289,5.87641569 30.0386289,11.3989094 C30.0386289,16.9200923 25.6126387,21.4135906 20.1715249,21.4135906 M33.3345517,21.0871959 L29.8151984,17.4535969 C30.9168529,15.6512164 31.4980305,13.6024014 31.4980305,11.4277475 C31.4980305,8.38532928 30.3356753,5.49627727 28.1943587,3.35308305 C26.0827468,1.20988884 23.2375596,0 20.2373917,0 C17.2385153,0 14.3933281,1.17842911 12.2817162,3.35308305 C7.90609462,7.79414849 7.90609462,15.0613465 12.2817162,19.5024119 C14.485025,21.7399853 17.3612083,22.8568058 20.2373917,22.8568058 C22.5026928,22.8568058 24.7667024,22.1738674 26.6949205,20.8079908 L30.1522814,24.3170617 C30.5810614,24.7509438 31.1312428,25 31.7434165,25 C32.3555903,25 32.9070632,24.7509438 33.3345517,24.3170617 C34.2218161,23.4165268 34.2218161,21.956271 33.3345517,21.0871959" id="Fill-11"></path>
            </g>
        </g>
    </g>
</svg>