<?xml version="1.0" encoding="UTF-8"?>
<svg width="24px" height="28px" viewBox="0 0 24 28" version="1.1" xmlns="http://www.w3.org/2000/svg" xmlns:xlink="http://www.w3.org/1999/xlink">
    <!-- Generator: sketchtool 52.6 (67491) - http://www.bohemiancoding.com/sketch -->
    <title>7D11DBDC-98D4-4F50-9E3D-9ACB33C313D2</title>
    <desc>Created with sketchtool.</desc>
    <g id="Payment-Calculator" stroke="none" stroke-width="1" fill="none" fill-rule="evenodd">
        <g id="Tools-Homepage" transform="translate(-250.000000, -114.000000)" fill="#FFFFFE">
            <path d="M272.006984,134 C271.63746,134 271.31873,133.809524 271.153651,133.528889 C271.052063,133.375238 271,133.19746 271,133.006984 C271,132.572698 271.267937,132.203175 271.662857,132.063492 C271.764444,132.025397 271.87873,132 272.006984,132 C272.554286,132 273,132.445714 273,133.006984 C273,133.554286 272.554286,134 272.006984,134 Z M272.006984,137 C271.446984,137 271,136.554286 271,135.993016 C271,135.445714 271.446984,135 272.006984,135 C272.554286,135 273,135.445714 273,135.993016 C273,136.554286 272.554286,137 272.006984,137 Z M272.006984,140 C271.446984,140 271,139.543218 271,138.999369 C271,138.454259 271.446984,138 272.006984,138 C272.554286,138 273,138.454259 273,138.999369 C273,139.543218 272.554286,140 272.006984,140 Z M270,133.006984 C270,133.478095 269.668571,133.873016 269.235556,133.974603 C269.159365,133.987302 269.083175,134 269.005714,134 C268.445714,134 268,133.554286 268,133.006984 C268,132.445714 268.445714,132 269.005714,132 C269.426032,132 269.782857,132.267937 269.935238,132.63746 C269.974603,132.739048 270,132.866032 270,132.994286 L270,133.006984 Z M269.005714,137 C268.866032,137 268.739048,136.974603 268.612063,136.92381 C268.253968,136.770159 268,136.413333 268,135.993016 C268,135.445714 268.445714,135 268.993016,135 C269.387937,135 269.719365,135.215873 269.884444,135.534603 C269.960635,135.674286 270,135.827937 270,135.993016 C270,136.554286 269.554286,137 269.005714,137 Z M269.005714,140 C268.445714,140 268,139.555836 268,138.999369 C268,138.454259 268.445714,138 268.993016,138 C269.554286,138 270,138.442902 270,138.999369 C270,139.543218 269.554286,140 269.005714,140 Z M265.994286,134 C265.445714,134 265,133.554286 265,133.006984 C265,132.445714 265.445714,132 265.994286,132 C266.554286,132 267,132.445714 267,133.006984 C267,133.554286 266.554286,134 265.994286,134 Z M266.885714,136.451429 C266.75873,136.706667 266.541587,136.884444 266.262222,136.961905 C266.172063,136.987302 266.083175,137 265.994286,137 C265.445714,137 265,136.554286 265,135.993016 C265,135.445714 265.445714,135 265.994286,135 C266.554286,135 267,135.445714 267,135.993016 C267,136.159365 266.961905,136.311746 266.885714,136.451429 Z M265.994286,140 C265.573968,140 265.217143,139.733754 265.07619,139.366562 C265.025397,139.252997 265,139.125552 265,138.999369 C265,138.454259 265.445714,138 265.994286,138 C266.287619,138 266.554286,138.126183 266.733333,138.328076 C266.898413,138.504732 267,138.745741 267,138.999369 C267,139.543218 266.554286,140 265.994286,140 Z M263.356942,127.268643 L263.356942,138.523557 C262.405221,139.073947 261.42858,139.561934 260.48754,140 C256.273624,138.021841 251.238524,135.117629 251.167322,129.571295 L251,120.469267 C254.749922,119.956318 257.78546,118.84181 260.48754,116 C263.21454,118.84181 266.250078,119.956318 270,120.469267 L269.892012,126.529797 L264.059459,126.529797 C263.666667,126.529797 263.356942,126.866771 263.356942,127.268643 Z M265,131 L273,131 L273,128 L265,128 L265,131 Z M273.292888,126.75557 L271.830886,126.75557 L271.97422,119.30915 C266.930075,118.677798 264.581795,117.982177 260.974568,114 C257.392425,117.944372 255.068034,118.677798 250,119.30915 L250.167222,129.826635 C250.298611,136.514425 255.967451,139.58549 260.974568,142 C261.921764,141.545074 262.904793,141.052343 263.862738,140.521806 L263.862738,141.255232 C263.862738,141.65849 264.174489,142 264.56985,142 L273.292888,142 C273.676305,142 274,141.65849 274,141.255232 L274,127.501598 C274,127.095819 273.676305,126.75557 273.292888,126.75557 Z" id="Fill-5"></path>
        </g>
    </g>
</svg>