<svg width="20" height="20" viewBox="0 0 20 20" fill="none" xmlns="http://www.w3.org/2000/svg">
<path d="M8.28366 8.28366L10.0003 7.50033L8.28366 6.71699L7.50033 5.00033L6.71699 6.71699L5.00033 7.50033L6.71699 8.28366L7.50033 10.0003L8.28366 8.28366ZM16.667 11.667L15.8837 9.95033L14.167 9.16699L15.8837 8.38366L16.667 6.66699L17.4503 8.38366L19.167 9.16699L17.4503 9.95033L16.667 11.667ZM12.917 7.50033L12.0087 5.49199L10.0003 4.58366L12.0087 3.67533L12.917 1.66699L13.8253 3.67533L15.8337 4.58366L13.8253 5.49199L12.917 7.50033ZM16.2503 17.0837L11.2503 12.0753L7.91699 15.4087L0.83366 7.44199L2.00866 6.26699L7.91699 12.9087L11.2503 9.57533L17.5003 15.8337L16.2503 17.0837Z" fill="#003785"/>
</svg>
