<svg width="24" height="24" viewBox="0 0 24 24" fill="none" xmlns="http://www.w3.org/2000/svg">
<g clip-path="url(#clip0_587_64738)">
<path d="M0.66675 22.5395L6.43942 11.1008C6.52282 10.9356 6.65042 10.7968 6.80802 10.6998C6.96562 10.6029 7.14704 10.5515 7.33208 10.5515C7.51713 10.5515 7.69855 10.6029 7.85614 10.6998C8.01374 10.7968 8.14135 10.9356 8.22475 11.1008L14.0001 22.5395C14.0715 22.6966 14.1024 22.8692 14.0899 23.0414C14.0774 23.2136 14.022 23.3799 13.9287 23.5252C13.8355 23.6704 13.7073 23.79 13.5559 23.873C13.4045 23.9559 13.2347 23.9997 13.0621 24.0001H1.60475C1.43212 23.9997 1.26235 23.9559 1.11096 23.873C0.959566 23.79 0.831375 23.6704 0.738092 23.5252C0.644808 23.3799 0.589403 23.2136 0.576941 23.0414C0.56448 22.8692 0.595356 22.6966 0.66675 22.5395ZM7.66675 13.3335H7.00008C6.91168 13.3335 6.82689 13.3686 6.76438 13.4311C6.70187 13.4936 6.66675 13.5784 6.66675 13.6668V18.3335C6.66675 18.4219 6.70187 18.5067 6.76438 18.5692C6.82689 18.6317 6.91168 18.6668 7.00008 18.6668H7.66675C7.75515 18.6668 7.83994 18.6317 7.90245 18.5692C7.96496 18.5067 8.00008 18.4219 8.00008 18.3335V13.6668C8.00008 13.5784 7.96496 13.4936 7.90245 13.4311C7.83994 13.3686 7.75515 13.3335 7.66675 13.3335ZM6.67275 21.6001H7.99408C8.0664 21.6001 8.13575 21.5714 8.18689 21.5203C8.23802 21.4691 8.26675 21.3998 8.26675 21.3275V20.0061C8.26675 19.9338 8.23802 19.8645 8.18689 19.8133C8.13575 19.7622 8.0664 19.7335 7.99408 19.7335H6.67275C6.63694 19.7335 6.60148 19.7405 6.5684 19.7542C6.53532 19.7679 6.50526 19.788 6.47994 19.8133C6.45462 19.8386 6.43454 19.8687 6.42084 19.9018C6.40714 19.9349 6.40008 19.9703 6.40008 20.0061V21.3281C6.40026 21.4003 6.42906 21.4695 6.48018 21.5205C6.5313 21.5715 6.60055 21.6001 6.67275 21.6001ZM1.93741 1.37413L7.09742 8.58413C6.63513 8.61898 6.18757 8.76235 5.79108 9.00258C5.39458 9.24282 5.06032 9.57316 4.81542 9.9668L1.39342 5.07747C1.35438 5.02154 1.33344 4.955 1.33342 4.8868V1.56813C1.33353 1.49764 1.35599 1.429 1.39757 1.37208C1.43915 1.31515 1.4977 1.27288 1.56481 1.25132C1.63193 1.22976 1.70415 1.23004 1.7711 1.25211C1.83805 1.27417 1.89627 1.31689 1.93741 1.37413ZM10.6814 3.5828L14.3147 13.5775L17.0354 10.8561C17.0942 10.7972 17.1729 10.7624 17.2561 10.7586C17.3392 10.7548 17.4208 10.7822 17.4847 10.8355L22.5467 15.0528C22.5843 15.0841 22.6145 15.1232 22.6352 15.1674C22.656 15.2117 22.6667 15.2599 22.6667 15.3088V18.1008C22.6668 18.1648 22.6484 18.2276 22.6138 18.2814C22.5791 18.3353 22.5297 18.378 22.4714 18.4046C22.4131 18.4311 22.3484 18.4402 22.285 18.4309C22.2217 18.4216 22.1623 18.3943 22.1141 18.3521L17.4154 14.2475L13.8534 17.8088L10.8667 11.8948L9.84542 9.96147C9.59893 9.56747 9.26284 9.23729 8.86454 8.99782C8.46624 8.75835 8.01699 8.61638 7.55342 8.58347L10.0701 3.54747C10.0992 3.48921 10.1448 3.44078 10.2012 3.40816C10.2576 3.37554 10.3223 3.36016 10.3874 3.36392C10.4524 3.36768 10.5149 3.39041 10.5672 3.42931C10.6194 3.46821 10.6592 3.52157 10.6814 3.5828Z" fill="#455A64"/>
</g>
<defs>
<clipPath id="clip0_587_64738">
<rect width="24" height="24" fill="white" transform="matrix(-1 0 0 1 24 0)"/>
</clipPath>
</defs>
</svg>
