<svg width="20" height="20" viewBox="0 0 20 20" fill="none" xmlns="http://www.w3.org/2000/svg">
<path d="M0.55534 18.7827L5.3659 9.2505C5.4354 9.11285 5.54173 8.99718 5.67307 8.91637C5.8044 8.83556 5.95558 8.79277 6.10978 8.79277C6.26399 8.79277 6.41517 8.83556 6.5465 8.91637C6.67784 8.99718 6.78417 9.11285 6.85367 9.2505L11.6665 18.7827C11.7259 18.9137 11.7517 19.0575 11.7413 19.201C11.7309 19.3445 11.6847 19.4831 11.607 19.6041C11.5293 19.7252 11.4224 19.8248 11.2963 19.894C11.1701 19.9631 11.0286 19.9996 10.8848 19.9999H1.33701C1.19314 19.9996 1.05167 19.9631 0.925514 19.894C0.799355 19.8248 0.692528 19.7252 0.614792 19.6041C0.537056 19.4831 0.490885 19.3445 0.480499 19.201C0.470114 19.0575 0.495844 18.9137 0.55534 18.7827ZM6.38867 11.1111H5.83312C5.75945 11.1111 5.68879 11.1403 5.6367 11.1924C5.58461 11.2445 5.55534 11.3152 5.55534 11.3888V15.2777C5.55534 15.3514 5.58461 15.4221 5.6367 15.4741C5.68879 15.5262 5.75945 15.5555 5.83312 15.5555H6.38867C6.46234 15.5555 6.533 15.5262 6.58509 15.4741C6.63719 15.4221 6.66645 15.3514 6.66645 15.2777V11.3888C6.66645 11.3152 6.63719 11.2445 6.58509 11.1924C6.533 11.1403 6.46234 11.1111 6.38867 11.1111ZM5.56034 18H6.66145C6.72171 18 6.77951 17.976 6.82212 17.9334C6.86473 17.8908 6.88867 17.833 6.88867 17.7727V16.6716C6.88867 16.6114 6.86473 16.5536 6.82212 16.5109C6.77951 16.4683 6.72171 16.4444 6.66145 16.4444H5.56034C5.5305 16.4444 5.50095 16.4503 5.47338 16.4617C5.44582 16.4731 5.42077 16.4898 5.39967 16.5109C5.37857 16.532 5.36183 16.5571 5.35041 16.5847C5.33899 16.6122 5.33312 16.6418 5.33312 16.6716V17.7733C5.33326 17.8335 5.35727 17.8911 5.39987 17.9336C5.44246 17.9761 5.50017 18 5.56034 18ZM1.61423 1.14495L5.91423 7.15328C5.52899 7.18232 5.15603 7.30179 4.82561 7.50199C4.4952 7.70219 4.21664 7.97748 4.01256 8.3055L1.16089 4.23106C1.12837 4.18446 1.11092 4.129 1.1109 4.07217V1.30661C1.11099 1.24787 1.12971 1.19067 1.16436 1.14324C1.199 1.0958 1.2478 1.06057 1.30373 1.0426C1.35965 1.02464 1.41984 1.02487 1.47563 1.04326C1.53142 1.06165 1.57994 1.09725 1.61423 1.14495ZM8.90089 2.9855L11.9287 11.3144L14.1959 9.04662C14.2449 8.99751 14.3105 8.96851 14.3798 8.96532C14.4491 8.96214 14.517 8.98499 14.5703 9.02939L18.7887 12.5438C18.82 12.5699 18.8451 12.6025 18.8624 12.6394C18.8797 12.6762 18.8887 12.7165 18.8887 12.7572V15.0838C18.8887 15.1372 18.8734 15.1895 18.8445 15.2344C18.8157 15.2793 18.7745 15.3149 18.7259 15.337C18.6773 15.3591 18.6234 15.3667 18.5706 15.3589C18.5178 15.3512 18.4683 15.3284 18.4281 15.2933L14.5126 11.8727L11.5442 14.8405L9.05534 9.91217L8.20423 8.30106C7.99882 7.97273 7.71875 7.69758 7.38683 7.49802C7.05491 7.29846 6.68054 7.18015 6.29423 7.15273L8.39145 2.95606C8.41575 2.90751 8.45375 2.86716 8.50074 2.83997C8.54774 2.81279 8.60167 2.79997 8.65586 2.8031C8.71006 2.80624 8.76215 2.82518 8.8057 2.8576C8.84925 2.89002 8.88234 2.93448 8.90089 2.9855Z" fill="#88007F"/>
</svg>
