<?xml version="1.0" encoding="UTF-8"?>
<svg width="35px" height="22px" viewBox="0 0 35 22" version="1.1" xmlns="http://www.w3.org/2000/svg" xmlns:xlink="http://www.w3.org/1999/xlink">
    <!-- Generator: sketchtool 52.6 (67491) - http://www.bohemiancoding.com/sketch -->
    <title>FD1335C8-F204-46C0-B6D2-CD1381645F4B</title>
    <desc>Created with sketchtool.</desc>
    <g id="Payment-Calculator" stroke="none" stroke-width="1" fill="none" fill-rule="evenodd">
        <g id="Tools-Homepage" transform="translate(-246.000000, -648.000000)" fill="#FFFFFE">
            <g id="Group-10" transform="translate(246.000000, 648.000000)">
                <g id="Group-7">
                    <polygon id="Fill-1" points="20.761 21.6895556 25.571 21.6895556 25.571 6.47288889 20.761 6.47288889"></polygon>
                    <path d="M23.764,0.716222222 L23.764,3.29511111 C23.764,3.61288889 23.504,3.86955556 23.166,3.86955556 C22.841,3.86955556 22.568,3.61288889 22.568,3.29511111 L22.568,2.07288889 L16.783,7.46288889 L16.77,7.46288889 C16.731,7.51177778 16.666,7.54844444 16.601,7.57288889 C16.588,7.58511111 16.575,7.58511111 16.549,7.59733333 C16.484,7.62177778 16.419,7.634 16.354,7.634 C16.289,7.634 16.224,7.62177778 16.159,7.59733333 C16.133,7.58511111 16.12,7.58511111 16.107,7.57288889 C16.081,7.57288889 16.068,7.56066667 16.055,7.54844444 L9.594,3.97955556 L3.107,8.96622222 C3.003,9.05177778 2.86,9.08844444 2.73,9.08844444 C2.561,9.08844444 2.379,9.02733333 2.262,8.88066667 C2.054,8.64844444 2.093,8.28177778 2.353,8.08622222 L9.165,2.85511111 L9.178,2.85511111 C9.191,2.84288889 9.204,2.83066667 9.217,2.81844444 C9.243,2.80622222 9.256,2.80622222 9.269,2.794 C9.295,2.78177778 9.308,2.78177778 9.321,2.78177778 C9.334,2.76955556 9.36,2.75733333 9.386,2.75733333 C9.399,2.74511111 9.412,2.74511111 9.425,2.74511111 C9.451,2.74511111 9.477,2.73288889 9.503,2.73288889 L9.542,2.73288889 L9.607,2.73288889 C9.633,2.74511111 9.646,2.74511111 9.659,2.74511111 C9.685,2.75733333 9.711,2.75733333 9.724,2.75733333 C9.737,2.76955556 9.763,2.76955556 9.776,2.78177778 C9.789,2.78177778 9.815,2.794 9.841,2.80622222 L16.263,6.36288889 L21.71,1.27844444 L20.423,1.27844444 C20.085,1.27844444 19.825,1.034 19.825,0.716222222 C19.825,0.410666667 20.085,0.154 20.423,0.154 L23.166,0.154 C23.244,0.154 23.322,0.166222222 23.387,0.190666667 L23.4,0.190666667 C23.465,0.227333333 23.543,0.264 23.595,0.325111111 C23.647,0.374 23.699,0.435111111 23.725,0.508444444 L23.725,0.520666667 C23.751,0.581777778 23.764,0.642888889 23.764,0.716222222" id="Fill-3"></path>
                    <polygon id="Fill-4" points="13.949 21.6895556 18.759 21.6895556 18.759 12.8162222 13.949 12.8162222"></polygon>
                    <polygon id="Fill-5" points="7.137 21.6895556 11.947 21.6895556 11.947 9.05177778 7.137 9.05177778"></polygon>
                    <polygon id="Fill-6" points="0.325 21.6895556 5.135 21.6895556 5.135 14.2828889 0.325 14.2828889"></polygon>
                </g>
                <path d="M31.4540589,13 L31.4540589,11.5240707 C30.5240856,11.5094455 29.5606601,11.2461913 29,10.8805606 L29.3840321,9.90188909 C29.9620874,10.2528946 30.7970562,10.5295551 31.6949153,10.5295551 C32.8336307,10.5295551 33.6043711,9.92992078 33.6043711,9.09750152 C33.6043711,8.29311395 32.9794826,7.79585619 31.7912578,7.3583181 C30.1547725,6.77330896 29.1431757,6.10054845 29.1431757,4.82937233 C29.1431757,3.61547837 30.0905442,2.69530774 31.5664585,2.47592931 L31.5664585,1 L32.5619982,1 L32.5619982,2.4174284 C33.5240856,2.44667885 34.1824264,2.68068251 34.6480821,2.9293114 L34.2479929,3.89335771 C33.9107939,3.71785497 33.2524532,3.39731871 32.2247993,3.39731871 C30.9884032,3.39731871 30.5240856,4.06886045 30.5240856,4.65386959 C30.5240856,5.41316271 31.118198,5.79341865 32.5138269,6.31992687 C34.1663693,6.93418647 35,7.69347959 35,8.99512492 C35,10.150518 34.118198,11.2315661 32.4656557,11.480195 L32.4656557,13 L31.4540589,13 Z" id="Fill-8"></path>
            </g>
        </g>
    </g>
</svg>